<?xml version="1.0" encoding="UTF-8" standalone="no"?>
<svg
   width="1024"
   height="1024"
   viewBox="0 0 1024 1024"
   version="1.1"
   xml:space="preserve"
   id="SVGRoot"
   xmlns="http://www.w3.org/2000/svg"
   xmlns:svg="http://www.w3.org/2000/svg"><defs
   id="defs2" />

<style
   type="text/css"
   id="style1">
g.prefab path {
  vector-effect:non-scaling-stroke;
  -inkscape-stroke:hairline;
  fill: none;
  fill-opacity: 1;
  stroke-opacity: 1;
  stroke: #00349c;
}
</style>

<path
   id="path2"
   style="fill:#220055"
   d="m 424.1543,0 -23.38477,103.22852 a 424.15469,424.15469 0 0 0 -98.70117,41.36523 L 212.07812,87.845703 87.845703,212.07812 144.59375,302.06836 a 424.15469,424.15469 0 0 0 -41.36523,98.70117 L 0,424.1543 v 175.6914 l 103.22852,23.38477 a 424.15469,424.15469 0 0 0 41.36523,98.70117 L 87.845703,811.92188 212.07812,936.1543 302.06836,879.40625 a 424.15469,424.15469 0 0 0 98.70117,41.36523 L 424.1543,1024 h 175 l 23.73632,-103.1543 a 424.15469,424.15469 0 0 0 99.04102,-41.43945 L 811.92188,936.1543 936.1543,811.92188 879.40625,721.93164 A 424.15469,424.15469 0 0 0 920.8457,622.89062 L 1024,599.1543 v -175 L 921.20898,400.86914 A 424.15469,424.15469 0 0 0 879.9375,301.22656 L 936.1543,212.07812 811.92188,87.845703 722.77344,144.0625 A 424.15469,424.15469 0 0 0 622.78516,102.69336 L 599.1543,0 Z M 512,193.88477 A 318.116,318.116 0 0 1 830.11523,512 318.116,318.116 0 0 1 512,830.11523 318.116,318.116 0 0 1 193.88477,512 318.116,318.116 0 0 1 512,193.88477 Z" /></svg>
